<svg xmlns="http://www.w3.org/2000/svg" width="495" height="170" viewBox="0 0 495 170" role="img" aria-label="Top languages card">
  <rect x="0.5" y="0.5" width="494" height="169" rx="12" fill="#ffffff" stroke="#d0d7de"/>
  <text x="20" y="32" font-family="Segoe UI,Arial,sans-serif" font-size="22" font-weight="700" fill="#24292f">Top Languages</text>
  <text x="20" y="52" font-family="Segoe UI,Arial,sans-serif" font-size="12" fill="#57606a">Weighted by repository size across public projects</text>
  <circle cx="26" cy="48" r="5" fill="#3178c6"/>
    <text x="38" y="52" font-family="Segoe UI,Arial,sans-serif" font-size="13" font-weight="600" fill="#24292f">TypeScript</text>
    <text x="460" y="52" text-anchor="end" font-family="Segoe UI,Arial,sans-serif" font-size="12" fill="#57606a">42.5%</text>
    <rect x="38" y="60" width="250" height="8" rx="4" fill="#eaeef2"/>
    <rect x="38" y="60" width="106" height="8" rx="4" fill="#3178c6"/><circle cx="26" cy="76" r="5" fill="#b07219"/>
    <text x="38" y="80" font-family="Segoe UI,Arial,sans-serif" font-size="13" font-weight="600" fill="#24292f">Java</text>
    <text x="460" y="80" text-anchor="end" font-family="Segoe UI,Arial,sans-serif" font-size="12" fill="#57606a">32.5%</text>
    <rect x="38" y="88" width="250" height="8" rx="4" fill="#eaeef2"/>
    <rect x="38" y="88" width="81" height="8" rx="4" fill="#b07219"/><circle cx="26" cy="104" r="5" fill="#e34c26"/>
    <text x="38" y="108" font-family="Segoe UI,Arial,sans-serif" font-size="13" font-weight="600" fill="#24292f">HTML</text>
    <text x="460" y="108" text-anchor="end" font-family="Segoe UI,Arial,sans-serif" font-size="12" fill="#57606a">22.5%</text>
    <rect x="38" y="116" width="250" height="8" rx="4" fill="#eaeef2"/>
    <rect x="38" y="116" width="56" height="8" rx="4" fill="#e34c26"/><circle cx="26" cy="132" r="5" fill="#8b949e"/>
    <text x="38" y="136" font-family="Segoe UI,Arial,sans-serif" font-size="13" font-weight="600" fill="#24292f">Other</text>
    <text x="460" y="136" text-anchor="end" font-family="Segoe UI,Arial,sans-serif" font-size="12" fill="#57606a">2.5%</text>
    <rect x="38" y="144" width="250" height="8" rx="4" fill="#eaeef2"/>
    <rect x="38" y="144" width="6" height="8" rx="4" fill="#8b949e"/>
</svg>